<svg width="38" height="42" viewBox="0 0 38 42" fill="none" xmlns="http://www.w3.org/2000/svg">
<path d="M31.5 29.5C29.9167 29.5 28.5 30.125 27.4167 31.1041L12.5625 22.4583C12.6667 21.9791 12.75 21.5 12.75 21C12.75 20.5 12.6667 20.0208 12.5625 19.5416L27.25 10.9791C28.375 12.0208 29.8542 12.6666 31.5 12.6666C34.9583 12.6666 37.75 9.87496 37.75 6.41663C37.75 2.95829 34.9583 0.166626 31.5 0.166626C28.0417 0.166626 25.25 2.95829 25.25 6.41663C25.25 6.91663 25.3333 7.39579 25.4375 7.87496L10.75 16.4375C9.625 15.3958 8.14583 14.75 6.5 14.75C3.04167 14.75 0.25 17.5416 0.25 21C0.25 24.4583 3.04167 27.25 6.5 27.25C8.14583 27.25 9.625 26.6041 10.75 25.5625L25.5833 34.2291C25.4792 34.6666 25.4167 35.125 25.4167 35.5833C25.4167 38.9375 28.1458 41.6666 31.5 41.6666C34.8542 41.6666 37.5833 38.9375 37.5833 35.5833C37.5833 32.2291 34.8542 29.5 31.5 29.5Z" fill="#877DD3"/>
</svg>
