<svg width="381" height="381" viewBox="0 0 381 381" fill="none" xmlns="http://www.w3.org/2000/svg">
<g clip-path="url(#clip0_49_901)">
<rect width="381" height="381" fill="#877DD3"/>
<path d="M166.891 29.664V52H162.411V29.664H166.891ZM178.101 52.288C176.651 52.288 175.349 52.032 174.197 51.52C173.045 50.9867 172.128 50.272 171.445 49.376C170.784 48.48 170.421 47.488 170.357 46.4H174.869C174.955 47.0827 175.285 47.648 175.861 48.096C176.459 48.544 177.195 48.768 178.069 48.768C178.923 48.768 179.584 48.5973 180.053 48.256C180.544 47.9147 180.789 47.4773 180.789 46.944C180.789 46.368 180.491 45.9413 179.893 45.664C179.317 45.3653 178.389 45.0453 177.109 44.704C175.787 44.384 174.699 44.0533 173.845 43.712C173.013 43.3707 172.288 42.848 171.669 42.144C171.072 41.44 170.773 40.4907 170.773 39.296C170.773 38.3147 171.051 37.4187 171.605 36.608C172.181 35.7973 172.992 35.1573 174.037 34.688C175.104 34.2187 176.352 33.984 177.781 33.984C179.893 33.984 181.579 34.5173 182.837 35.584C184.096 36.6293 184.789 38.048 184.917 39.84H180.629C180.565 39.136 180.267 38.5813 179.733 38.176C179.221 37.7493 178.528 37.536 177.653 37.536C176.843 37.536 176.213 37.6853 175.765 37.984C175.339 38.2827 175.125 38.6987 175.125 39.232C175.125 39.8293 175.424 40.288 176.021 40.608C176.619 40.9067 177.547 41.216 178.805 41.536C180.085 41.856 181.141 42.1867 181.973 42.528C182.805 42.8693 183.52 43.4027 184.117 44.128C184.736 44.832 185.056 45.7707 185.077 46.944C185.077 47.968 184.789 48.8853 184.213 49.696C183.659 50.5067 182.848 51.1467 181.781 51.616C180.736 52.064 179.509 52.288 178.101 52.288ZM193.971 37.952V46.528C193.971 47.1253 194.11 47.5627 194.387 47.84C194.686 48.096 195.176 48.224 195.859 48.224H197.939V52H195.123C191.347 52 189.459 50.1653 189.459 46.496V37.952H187.347V34.272H189.459V29.888H193.971V34.272H197.939V37.952H193.971ZM205.641 37.024C206.217 36.0853 206.964 35.3493 207.881 34.816C208.82 34.2827 209.886 34.016 211.081 34.016V38.72H209.897C208.489 38.72 207.422 39.0507 206.697 39.712C205.993 40.3733 205.641 41.5253 205.641 43.168V52H201.161V34.272H205.641V37.024ZM216.371 32.16C215.581 32.16 214.92 31.9147 214.387 31.424C213.875 30.912 213.619 30.2827 213.619 29.536C213.619 28.7893 213.875 28.1707 214.387 27.68C214.92 27.168 215.581 26.912 216.371 26.912C217.16 26.912 217.811 27.168 218.323 27.68C218.856 28.1707 219.123 28.7893 219.123 29.536C219.123 30.2827 218.856 30.912 218.323 31.424C217.811 31.9147 217.16 32.16 216.371 32.16ZM218.579 34.272V52H214.099V34.272H218.579Z" fill="white"/>
<path d="M222.636 113.869C215.182 120.45 209.871 128.868 208.724 138.985C208.183 143.782 208.005 148.381 209.721 152.896C211.12 156.574 214.255 160.209 212.907 164.532C211.85 167.918 208.125 170.493 206.69 173.98C205.065 177.932 204.944 182.176 205.778 186.303C207.648 195.568 216.011 202.004 216.923 211.439C217.907 221.626 213.209 232.25 209.219 241.531C205.934 249.169 201.071 256.15 202.268 264.672C203.617 274.28 212.373 278.883 210.735 289.362C209.24 298.927 211.398 307.247 220.461 312.606C229 317.655 238.188 316.604 246.249 311.111C255.091 305.086 256.47 298.073 258.475 288.367C261.187 275.257 261.936 262.357 261.902 249.01C261.858 232.955 259.354 216.538 267.502 202.273C275.438 188.383 261.69 179.737 257.734 167.573C254.604 157.941 260.458 148.171 257.857 138.482C255.425 129.41 247.786 121.124 239.252 117.051C237.799 116.358 223.459 113.142 222.636 113.869Z" fill="#D04446"/>
<path d="M205.334 396.537C203.743 405.657 197.626 408.92 190.402 409.333C183.181 409.748 177.97 405.567 177.095 398.431C177.159 394.929 166.1 307.71 166.1 307.71V272.155H205.812C205.812 272.155 208.294 293.956 208.294 315.749C208.294 349.439 205.901 391.345 205.334 396.537Z" fill="#CB7A65"/>
<path d="M133.828 396.537C135.419 405.657 141.536 408.92 148.759 409.333C155.982 409.748 161.191 405.567 162.067 398.431C162.004 394.929 173.062 307.71 173.062 307.71V272.155H133.35C133.35 272.155 130.867 293.956 130.867 315.749C130.867 349.439 133.26 391.345 133.828 396.537Z" fill="#CB7A65"/>
<path d="M160.681 138.587H178.034C177.394 140.076 177.067 155.088 182.274 161.912C182.274 161.912 183.638 180.869 169.029 180.869C154.422 180.869 155.785 161.912 155.785 161.912C161.475 155.003 160.89 140.429 160.681 138.587Z" fill="#FBC0AF"/>
<path d="M137.801 168.014C140.797 166.976 149.379 164.988 155.785 161.912C155.785 161.912 159.585 168.809 168.292 169.392C177 168.809 182.274 161.912 182.274 161.912C188.678 164.988 197.766 166.976 200.761 168.014C203.968 169.125 212.834 303.092 211.255 304.323C203.784 310.147 183.088 312.602 168.222 313.11C153.354 312.602 134.251 310.148 126.78 304.323C125.202 303.092 134.595 169.125 137.801 168.014Z" fill="#47509B"/>
<path d="M266.337 260.074C261.888 257.903 219.738 233.551 218.925 233.168C207.47 227.771 204.301 244.333 213.904 249.325C218.268 251.594 263.256 272.116 264.918 272.718C266.496 269.817 266.112 263.311 266.337 260.074Z" fill="#47509B"/>
<path d="M225.386 238.272C225.257 237.68 219.633 203.623 217.991 192.62C216.351 181.617 210.528 169.034 200.258 168.014C200.258 168.014 195.131 171.502 196.343 182.451C197.398 192.02 206.237 235.783 209.742 245.989C210.487 248.159 227.656 248.619 225.386 238.272Z" fill="#47509B"/>
<path d="M123.314 240.229C123.362 239.626 124.331 205.142 124.469 194.025C124.606 182.907 127.759 170.346 137.801 168.014C137.801 168.014 144.274 170.15 144.554 181.159C144.801 190.78 141.959 235.299 139.865 245.865C139.419 248.113 122.462 250.777 123.314 240.229Z" fill="#4C56A6"/>
<path d="M178.034 148.908C177.492 148.917 166.145 148.325 160.104 150.781C161.051 145.083 160.803 139.663 160.681 138.587H178.034C177.828 139.066 178.001 146.343 178.034 148.908Z" fill="#DAD6D2"/>
<path d="M190.715 100.631C190.715 100.631 191.937 119.211 189.09 133.092C186.26 146.9 182.112 147.988 173.213 146.492C155.931 143.593 156.835 128.287 156.835 128.287C156.835 128.287 154.198 132.011 151.047 128.183C149.714 126.565 147.901 121.161 150.532 110.706C155.121 92.4548 190.715 100.631 190.715 100.631Z" fill="#FBC0AF"/>
<path d="M156.157 126.409C156.157 126.409 155.833 126.119 154.948 125.033C154.066 123.95 152.72 124.945 153.43 126.141C154.033 127.157 156.157 126.409 156.157 126.409Z" fill="#CAC4C2"/>
<path d="M185.156 122.16C185.728 123.42 187.783 122.346 187.051 121.126C186.341 119.943 184.609 120.955 185.156 122.16Z" fill="#00001E"/>
<path d="M184.797 117.599C186.477 117.077 187.638 117.137 189.234 117.812C190.229 118.233 191.928 117.516 191.372 116.209C190.086 113.186 185.266 113.568 183.463 115.907C182.829 116.73 183.873 117.886 184.797 117.599Z" fill="#40477A"/>
<path d="M172.534 121.166C171.988 119.903 169.904 120.974 170.64 122.199C171.355 123.391 173.056 122.372 172.534 121.166Z" fill="#00001E"/>
<path d="M175.501 115.267C174.354 114.045 172.358 113.836 170.753 113.83C169.213 113.824 166.261 114.72 166.362 116.612C166.401 117.358 166.944 117.876 167.704 117.921C168.705 117.981 169.849 117.186 170.877 117.033C172.096 116.852 173.185 116.766 174.374 117.156C175.533 117.537 176.239 116.054 175.501 115.267Z" fill="#40477A"/>
<path d="M165.741 124.077C168.829 122.451 176.145 127.955 171.303 130.571C166.458 133.187 162.65 125.705 165.741 124.077Z" fill="#F9B49D"/>
<path d="M190.383 124.049C190.126 126.431 189.821 128.833 189.383 131.134C188.838 131.088 187.976 130.904 187.389 130.587C183.744 128.62 187.241 125.018 190.383 124.049Z" fill="#F9B49D"/>
<path d="M183.79 117.351C182.873 118.259 181.949 119.569 181.844 120.874C181.838 120.952 181.946 120.951 181.972 120.891C182.248 120.244 182.484 119.6 182.828 118.981C183.135 118.429 183.506 117.918 183.803 117.361C183.807 117.353 183.797 117.344 183.79 117.351Z" fill="#BDB7B2"/>
<path d="M181.324 122.714C180.978 124.693 181.288 126.52 181.798 128.442C182.013 129.253 182.743 130.867 181.892 131.491C180.951 132.182 179.424 132.015 178.419 131.61C178.368 131.589 178.332 131.674 178.382 131.697C179.28 132.115 180.188 132.204 181.166 132.049C181.532 131.991 182.647 131.641 182.625 131.118C182.58 130.058 182.243 129.04 181.96 128.023C181.475 126.284 181.198 124.525 181.404 122.724C181.409 122.68 181.332 122.67 181.324 122.714Z" fill="#BDB7B2"/>
<path d="M182.359 135.611C177.779 136.573 173.198 134.368 173.198 134.368C174.112 137.023 180.334 139.07 181.164 136.96C181.447 136.24 182.359 135.611 182.359 135.611Z" fill="#F0EFEE"/>
<path d="M178.381 140.732C177.777 140.198 176.774 139.727 176.018 140.272C175.897 140.359 175.937 140.537 176.094 140.547C176.835 140.596 177.482 140.669 178.147 141.028C178.335 141.13 178.548 140.88 178.381 140.732Z" fill="#DAD6D2"/>
<path d="M153.996 95.2173L160.732 104.121C164.097 114.676 158.976 115.653 157.209 121.738C157.082 122.174 156.98 122.593 156.896 122.997C156.21 122.294 155.401 121.729 154.56 121.724C152.344 121.715 150.538 123.462 150.529 125.623C150.52 127.786 152.308 129.546 154.525 129.554C155.343 129.559 156.139 129.029 156.817 128.356C157.216 130.647 160.617 139.684 160.617 139.684C156.158 137.061 149.054 135.348 148.334 127.596C147.891 122.822 144.267 122.354 143.853 108.709C143.4 93.6817 153.996 95.2173 153.996 95.2173Z" fill="#454C81"/>
<path d="M192.807 103.336C192.985 108.225 190.874 113.717 190.874 113.717C190.655 110.863 188.958 106.968 187.65 105.426C187.65 105.426 191.334 104.774 192.807 103.336Z" fill="#454C81"/>
<path d="M160.732 104.121C160.732 104.121 165.946 108.603 177.661 108.631C185.902 108.654 192.749 107.039 195.471 99.7915C200.422 86.6091 188.419 78.3905 179.408 83.568C176.516 85.231 176.86 88.0052 177.136 89.82C177.136 89.82 172.724 90.9409 167.006 88.0062C158.721 83.7545 153.452 93.5515 153.996 95.2176L160.732 104.121Z" fill="#4F5892"/>
<path d="M247.779 149.188C245.107 154.954 243.731 180.642 244.113 186.206C240.826 191.691 230.896 190.499 230.125 189.345C229.494 188.403 235.397 167.986 231.392 162.436C227.965 157.691 226.229 155.771 228.754 153.328C233.295 148.937 239.47 147.624 245.325 146.195L247.779 149.188Z" fill="#F9AF94"/>
<path d="M208.47 231.003C201.503 263.615 196.652 353.195 191.675 393.478C191.675 393.478 191.836 405.089 233.083 405.089C274.329 405.089 280.61 393.478 280.61 393.478C279.178 352.093 275.303 292.204 265.298 263.286C258.454 243.5 268.775 186.831 267.694 183.685C266.736 180.9 262.459 180.438 255.117 179.666C255.117 179.666 223.519 181.418 219.673 182.106C217.731 182.454 215.921 183.621 215.921 183.621C213.904 192.3 208.47 198.216 202.715 211.756C198.466 221.749 208.47 231.003 208.47 231.003Z" fill="#95A8D6"/>
<path d="M244.652 169.725C245.325 175.187 253.281 179.669 255.117 179.666C255.117 179.666 239.681 192.914 226.947 194.176C215.99 195.257 219.674 182.106 219.674 182.106C225.277 180.839 232.141 175.381 232.803 170.693C232.803 170.693 236.329 170.645 239.54 170.126L244.652 169.725Z" fill="#F9AF94"/>
<path d="M232.291 164.439C234.25 164.835 236.542 164.417 238.677 164.902C243.387 165.967 244.652 169.724 244.652 169.724C245.264 161.277 246.334 152.31 247.78 149.188L245.325 146.195C239.469 147.624 233.295 148.937 228.754 153.328C226.229 155.771 227.966 157.691 231.392 162.436C231.78 162.973 232.073 163.653 232.291 164.439Z" fill="#DAD6D2"/>
<path d="M261.63 180.827C273.811 179.544 273.62 201.798 275.73 209.181C277.743 216.219 281.16 231.933 283.559 238.815C285.041 243.069 286.86 245.596 282.963 248.683C279.067 251.769 275.886 249.549 274.682 246.85C270.476 237.411 259.644 202.559 257.883 193.823C255.969 184.334 261.63 180.827 261.63 180.827Z" fill="#F9AF94"/>
<path d="M209.973 229.262C209.973 229.262 186.852 251.665 189.575 278.257C191.778 299.788 204.162 307.478 204.462 321.076" fill="#95A8D6"/>
<path d="M233.083 309.498C205.03 312.036 199.323 306.179 199.295 306.474C197.96 320.395 196.035 348.489 196.035 348.489C200.824 325.807 205.787 317.276 233.083 309.498Z" fill="#DAD6D2"/>
<path d="M208.47 231.003C216.06 234.499 226.47 229.262 229.762 229.262C233.053 229.262 242.557 239.406 254.012 229.701C241.734 242.342 231.782 229.953 228.265 231.341C216.18 236.107 208.47 231.003 208.47 231.003Z" fill="#DAD6D2"/>
<path d="M220.946 130.672C218.829 135.537 219.921 137.793 220.216 142.375C220.495 146.741 220.346 147.613 221.156 151.162C222.186 155.682 226.085 159.436 230.085 162.258C236.641 166.458 242.691 161.512 246.424 156.13C253.741 145.58 253.165 134.736 250.55 128.982C246.872 120.664 238.719 120.288 230.75 122.089C230.75 122.089 224.266 123.037 220.946 130.672Z" fill="#F9AF94"/>
<path d="M249.258 144.131C250.434 141.145 255.659 138.949 255.659 143.872C255.659 147.929 249.88 155.597 248.739 147.801L249.258 144.131Z" fill="#F9AF94"/>
<path d="M226.686 144.046C226.686 142.854 224.789 142.854 224.789 144.046" stroke="#540806" stroke-width="1.6759" stroke-miterlimit="10" stroke-linecap="round" stroke-linejoin="round"/>
<path d="M242.471 144.137C242.471 142.945 240.574 142.945 240.574 144.137" stroke="#540806" stroke-width="1.6759" stroke-miterlimit="10" stroke-linecap="round" stroke-linejoin="round"/>
<path d="M238.438 140.576C239.35 140.606 240.047 139.917 241.002 139.956C241.959 139.996 242.933 140.736 243.86 140.362C244.185 140.231 244.36 139.918 244.181 139.592C243.674 138.667 242.011 138.332 241.002 138.353C239.919 138.376 238.383 139.018 238.053 140.082C237.975 140.332 238.185 140.567 238.438 140.576Z" fill="#982E2F"/>
<path d="M228.725 140.082C228.411 139.068 227.029 138.473 226.006 138.375C224.949 138.273 223.131 138.615 222.596 139.592C222.417 139.918 222.592 140.231 222.916 140.362C223.749 140.698 224.687 140.124 225.532 139.987C226.604 139.812 227.337 140.61 228.339 140.576C228.593 140.567 228.803 140.332 228.725 140.082Z" fill="#982E2F"/>
<path d="M246.79 146.464C243.895 144.938 237.033 150.101 241.577 152.555C246.119 155.009 249.689 147.99 246.79 146.464Z" fill="#F79C80"/>
<path d="M220.429 146.372C220.524 147.929 220.663 149.1 221.153 151.248C221.246 151.659 221.372 152.062 221.51 152.46C222.593 153.146 223.959 153.35 225.434 152.555C229.871 150.159 223.431 145.182 220.429 146.372Z" fill="#F79C80"/>
<path d="M228.796 140.539C229.074 141.061 229.418 141.544 229.71 142.06C230.038 142.637 230.255 143.243 230.514 143.849C230.538 143.906 230.639 143.906 230.633 143.833C230.536 142.61 229.667 141.382 228.808 140.53C228.802 140.524 228.792 140.532 228.796 140.539Z" fill="#BDB7B2"/>
<path d="M231.315 146.491C231.454 148.046 230.867 149.336 230.683 150.832C230.561 151.816 232.322 151.862 232.936 151.632C232.99 151.612 232.97 151.53 232.912 151.546C232.444 151.674 230.94 151.64 230.963 150.832C230.977 150.349 231.157 149.858 231.282 149.394C231.547 148.41 231.586 147.482 231.39 146.481C231.382 146.44 231.311 146.449 231.315 146.491Z" fill="#BDB7B2"/>
<path d="M234.13 158.898C234.712 158.468 235.317 158.322 236.012 158.174C236.133 158.148 236.15 157.978 236.046 157.921C235.281 157.503 234.399 158.047 233.911 158.621C233.789 158.763 233.955 159.027 234.13 158.898Z" fill="#DAD6D2"/>
<path d="M239.008 153.362C239.008 153.362 237.546 153.777 235.109 153.777C234.707 153.777 234.039 153.818 233.543 154.509C233.115 154.239 232.776 153.996 232.181 154.242C231.333 154.596 230.318 154.555 230.318 154.555C230.318 154.555 230.647 155.165 231.141 155.691C231.784 156.383 232.68 157.075 234.039 156.961C236.086 156.791 237.306 155.782 237.967 154.925C238.541 154.18 239.008 153.362 239.008 153.362Z" fill="#F9BBB5"/>
<path d="M238.994 153.339C236.592 154.793 232.945 156.842 230.338 154.537C230.311 154.514 230.277 154.548 230.299 154.574C232.345 156.935 237.258 155.386 239.027 153.381C239.046 153.359 239.022 153.323 238.994 153.339Z" fill="#F9BBB5"/>
<path d="M263.039 257.954C272.953 260.958 274.296 275.57 267.028 279.878C260.193 283.93 255.473 279.49 258.344 275.632C263.441 268.783 264.783 263.913 264.783 263.913L263.039 257.954Z" fill="#FBC0AF"/>
<path d="M277.247 219.928C278.971 216.063 280.294 211.626 280.423 207.71C280.896 193.42 269.235 183.244 267.671 169.477C266.834 162.106 270.741 156.895 271.087 149.788C271.417 142.979 270.259 136.605 268.067 130.509C266.254 125.476 262.812 110.744 245.2 107.413C233.658 105.232 220.508 108.822 217.35 125.794C216.726 128.54 215.373 131.712 216.161 134.361C216.88 136.778 217.586 138.784 219.701 140.406C219.489 138.716 219.249 136.864 220.39 135.592C222.31 133.45 224.36 133.358 225.881 132.38C227.388 131.41 229.643 128.082 230.682 125.613C231.869 137.323 235.557 132.801 241.224 138.468C253.911 151.162 238.047 171.867 239.384 178.289C240.803 185.104 246.891 190.274 246.597 197.545C246.456 200.972 247.069 204.305 245.742 207.62C244.27 211.303 241.566 214.364 239.41 217.664C235.548 223.572 231.05 231.136 234.87 238.087C237.421 242.731 243.267 243.859 245.189 248.836C247.226 254.109 244.491 258.7 244.018 263.901C243.495 269.656 247.772 274.362 253.871 274.082C260.119 273.793 261.095 266.957 261.133 262.134C261.153 259.532 260.014 256.623 260.375 254.097C260.837 250.852 264.483 248.485 266.245 245.872C268.604 242.376 268.36 238.341 269.268 234.497C270.245 230.358 273.525 226.97 275.563 223.3C276.148 222.252 276.716 221.117 277.247 219.928Z" fill="#D04446"/>
<path d="M184.005 259.184C185.545 259.813 186.607 260.213 186.972 260.283C189.215 260.713 191.605 261.485 194.522 261.179C197.888 260.823 200.7 261.015 203.84 262.216C205.003 262.658 207.084 263.789 206.944 264.587C206.702 265.995 205.528 265.662 203.574 264.946C203.038 264.748 201.308 264.668 200.245 264.207C202.972 266.346 209.37 267.037 212.47 269.854C214.352 271.562 215.047 273.131 212.968 274.982C210.425 277.249 208.554 275.112 205.696 275.277C204.547 275.343 202.849 276.545 199.35 275.188C197.394 274.429 195.147 273.283 193.463 272.088C191.318 270.568 188.505 268.42 186.689 267.505C186.1 267.211 186.442 267.302 181.038 265.843L184.005 259.184Z" fill="#FBC0AF"/>
<path d="M187.536 257.545C182.934 255.704 134.32 233.45 133.48 233.128C121.646 228.576 119.746 245.323 129.705 249.607C134.228 251.553 182.36 269.239 184.065 269.718C185.419 266.71 187.558 260.79 187.536 257.545Z" fill="#4C56A6"/>
<path d="M284.818 242.009C280.347 235.075 274.36 241.63 270.034 244.804C264.161 249.114 239.291 264.79 237.244 265.486C235.198 266.183 233.057 267.221 230.278 267.311C227.067 267.417 224.452 267.962 221.666 269.502C220.635 270.07 218.834 271.402 219.075 272.136C219.497 273.424 220.552 272.96 222.291 272.031C222.766 271.776 224.381 271.473 225.315 270.904C223.049 273.268 217.132 274.75 214.608 277.8C213.078 279.651 212.637 281.214 214.843 282.682C217.543 284.478 219.007 282.229 221.714 282.012C222.804 281.925 224.563 282.832 227.663 281.1C229.396 280.132 231.35 278.762 232.765 277.422C234.572 275.713 236.92 273.33 238.501 272.234C240.082 271.137 271.349 258.678 276.819 254.691C283.302 249.971 286.615 244.794 284.818 242.009Z" fill="#F9AF94"/>
</g>
<defs>
<clipPath id="clip0_49_901">
<rect width="381" height="381" fill="white"/>
</clipPath>
</defs>
</svg>
