<svg width="462" height="555" viewBox="0 0 462 555" fill="none" xmlns="http://www.w3.org/2000/svg">
<path d="M408.237 24.7303C437.929 38.3885 448.799 74.9884 432.514 106.478C407.001 132.554 375.902 158.328 346.21 144.67C316.518 131.012 317.175 90.7304 324.988 57.0172C341.273 25.5276 378.544 11.0723 408.237 24.7303Z" fill="#877DD3"/>
<path d="M408.237 24.7303C437.929 38.3885 448.799 74.9884 432.514 106.478C407.001 132.554 375.902 158.328 346.21 144.67C316.518 131.012 317.175 90.7304 324.988 57.0172C341.273 25.5276 378.544 11.0723 408.237 24.7303Z" stroke="none"/>
<path d="M24.3393 111.302C37.7815 101.139 58.502 104.457 70.6195 118.713C77.9748 135.867 83.9352 155.438 70.493 165.601C57.0508 175.764 37.0571 166.5 21.9409 155.517C9.82342 141.261 10.8971 121.465 24.3393 111.302Z" fill="#FEDEEB"/>
<path d="M24.3393 111.302C37.7815 101.139 58.502 104.457 70.6195 118.713C77.9748 135.867 83.9352 155.438 70.493 165.601C57.0508 175.764 37.0571 166.5 21.9409 155.517C9.82342 141.261 10.8971 121.465 24.3393 111.302Z" stroke="none"/>
<path d="M180.771 46.3804C197.549 42.6879 214.719 54.1191 219.122 71.9123C217.902 90.3798 214.318 110.46 197.54 114.152C180.763 117.844 166.97 101.347 158.365 85.2841C153.962 67.4909 163.994 50.0729 180.771 46.3804Z" fill="#FEDEEB"/>
<path d="M180.771 46.3804C197.549 42.6879 214.719 54.1191 219.122 71.9123C217.902 90.3798 214.318 110.46 197.54 114.152C180.763 117.844 166.97 101.347 158.365 85.2841C153.962 67.4909 163.994 50.0729 180.771 46.3804Z" stroke="none"/>
<path d="M263.153 35.3264C280.38 35.1709 294.496 49.8558 294.682 68.1262C289.224 85.8993 281.087 104.76 263.859 104.916C246.632 105.071 236.983 86.1345 232.296 68.6893C232.11 50.419 245.925 35.482 263.153 35.3264Z" fill="#FEDEEB"/>
<path d="M263.153 35.3264C280.38 35.1709 294.496 49.8558 294.682 68.1262C289.224 85.8993 281.087 104.76 263.859 104.916C246.632 105.071 236.983 86.1345 232.296 68.6893C232.11 50.419 245.925 35.482 263.153 35.3264Z" stroke="#none"/>
<path d="M96.811 68.5661C112.65 62.1739 131.669 70.6093 139.29 87.4071C141.5 105.793 141.68 126.155 125.841 132.547C110.001 138.939 93.3724 124.959 81.9317 110.555C74.3103 93.7575 80.972 74.9583 96.811 68.5661Z" fill="#FEDEEB"/>
<path d="M96.811 68.5661C112.65 62.1739 131.669 70.6093 139.29 87.4071C141.5 105.793 141.68 126.155 125.841 132.547C110.001 138.939 93.3724 124.959 81.9317 110.555C74.3103 93.7575 80.972 74.9583 96.811 68.5661Z" stroke="none"/>
<path fill-rule="evenodd" clip-rule="evenodd" d="M232.277 555C338.133 555 389.308 439.412 423.947 330.366C423.947 217.948 338.133 126.815 232.277 126.815C205.53 126.815 180.063 132.632 156.937 143.142C186.988 144.464 210.968 170.719 210.968 202.914C200.773 234.963 185.712 268.934 154.558 268.934C123.404 268.934 106.304 234.535 98.1487 202.914C98.1487 195.183 99.5312 187.795 102.048 181.012C64.2597 218.192 40.6064 271.345 40.6064 330.366C40.94 331.661 41.278 332.958 41.6204 334.256C45.8822 300.442 63.2807 271.047 88.1825 252.056L88.3823 252.103C88.4161 252.013 88.4521 251.923 88.49 251.834L88.2201 252.027C91.161 249.786 94.2065 247.69 97.3472 245.749L95.8159 246.731C97.3021 246.38 99.0395 246.143 101.061 246.048C103.619 245.929 105.83 246.296 107.67 246.981C117.449 268.311 132.472 285.6 154.558 285.6C176.867 285.6 190.924 268.179 200.851 246.519C202.673 245.856 204.852 245.503 207.368 245.621C209.389 245.715 211.127 245.952 212.613 246.304L211.274 245.446C245.478 266.34 268.51 305.551 268.51 350.478C247.916 415.337 217.492 484.088 154.558 484.088C125.567 484.088 102.6 469.315 84.6492 447.123C117.776 508.473 165.535 555 232.277 555ZM219.939 251.406C219.955 251.443 219.97 251.479 219.984 251.515C220.006 251.569 220.027 251.622 220.047 251.676L220.248 251.628L219.939 251.406ZM105.227 241.31L105.31 241.515L105.292 241.477L105.172 241.372L101.295 243.42C102.591 242.691 103.901 241.987 105.227 241.31Z" fill="#877DD3"/>
<path d="M154.504 148.746C183.125 148.746 206.328 173.324 206.328 203.641C196.963 233.049 183.125 264.221 154.504 264.221C125.883 264.221 110.173 232.657 102.681 203.641C102.681 173.324 125.883 148.746 154.504 148.746Z" fill="#FEDEEB"/>
<path d="M154.504 148.746C183.125 148.746 206.328 173.324 206.328 203.641C196.963 233.049 183.125 264.221 154.504 264.221C125.883 264.221 110.173 232.657 102.681 203.641C102.681 173.324 125.883 148.746 154.504 148.746Z" stroke="none"/>
<path fill-rule="evenodd" clip-rule="evenodd" d="M154.409 292.859C175.822 292.859 189.314 276.725 198.842 256.664C200.591 256.05 202.683 255.723 205.097 255.832C207.038 255.919 208.706 256.139 210.132 256.465L208.848 255.67C241.677 275.022 263.783 311.338 263.783 352.947C246.352 405.92 221.584 461.696 174.552 474.137C186.152 462.37 197.199 443.432 202.948 432.311C208.056 412.143 198.454 391.899 181.501 387.093C171.682 384.31 161.551 387.316 153.771 394.257C146.127 387.907 136.419 385.248 126.999 387.918C110.046 392.724 100.444 412.968 105.552 433.136C111.105 443.879 121.602 461.915 132.766 473.737C85.8904 460.458 58.8477 404.717 45.0358 352.947C45.0358 315.387 63.0484 282.141 90.7006 261.791L90.892 261.835C90.9245 261.751 90.9589 261.668 90.9954 261.586L90.7418 261.761C93.56 259.689 96.4783 257.751 99.4876 255.956L98.0273 256.86C99.4538 256.534 101.121 256.314 103.062 256.227C105.517 256.117 107.638 256.456 109.404 257.091C118.791 276.847 133.21 292.859 154.409 292.859ZM217.267 261.439C217.235 261.356 217.2 261.273 217.164 261.19L217.461 261.395L217.267 261.439ZM107.138 252.026L107.06 251.839C105.79 252.465 104.534 253.116 103.292 253.79L107.007 251.897L107.123 251.993L107.138 252.026ZM184.39 345.061C178.911 361.683 170.816 379.302 154.07 379.302C137.325 379.302 128.134 361.461 123.75 345.061C123.75 327.924 137.325 314.032 154.07 314.032C170.816 314.032 184.39 327.924 184.39 345.061Z" fill="#FEDEEB"/>
</svg>
