<svg width="49" height="55" viewBox="0 0 49 55" fill="none" xmlns="http://www.w3.org/2000/svg">
<path d="M35.3333 49.1666H13.6667C11.5118 49.1666 9.44516 48.3106 7.92142 46.7869C6.39769 45.2631 5.54167 43.1965 5.54167 41.0416V13.9583C5.54167 13.24 5.25632 12.5511 4.74841 12.0432C4.2405 11.5353 3.55163 11.25 2.83333 11.25C2.11504 11.25 1.42616 11.5353 0.918252 12.0432C0.410341 12.5511 0.125 13.24 0.125 13.9583V41.0416C0.125 44.6331 1.55171 48.0775 4.09126 50.617C6.63082 53.1566 10.0752 54.5833 13.6667 54.5833H35.3333C36.0516 54.5833 36.7405 54.298 37.2484 53.79C37.7563 53.2821 38.0417 52.5933 38.0417 51.875C38.0417 51.1567 37.7563 50.4678 37.2484 49.9599C36.7405 49.452 36.0516 49.1666 35.3333 49.1666ZM48.875 19.2125C48.8468 18.9637 48.7923 18.7185 48.7125 18.4812V18.2375C48.5823 17.959 48.4086 17.703 48.1979 17.4791L31.9479 1.22913C31.724 1.01846 31.4681 0.844762 31.1896 0.714542H30.9458L30.0792 0.416626H19.0833C16.9284 0.416626 14.8618 1.27265 13.3381 2.79638C11.8144 4.32012 10.9583 6.38674 10.9583 8.54163V35.625C10.9583 37.7798 11.8144 39.8465 13.3381 41.3702C14.8618 42.8939 16.9284 43.75 19.0833 43.75H40.75C42.9049 43.75 44.9715 42.8939 46.4952 41.3702C48.019 39.8465 48.875 37.7798 48.875 35.625V19.375C48.875 19.375 48.875 19.375 48.875 19.2125ZM32.625 9.65204L39.6396 16.6666H35.3333C34.615 16.6666 33.9262 16.3813 33.4183 15.8734C32.9103 15.3655 32.625 14.6766 32.625 13.9583V9.65204ZM43.4583 35.625C43.4583 36.3433 43.173 37.0321 42.6651 37.54C42.1572 38.048 41.4683 38.3333 40.75 38.3333H19.0833C18.365 38.3333 17.6762 38.048 17.1683 37.54C16.6603 37.0321 16.375 36.3433 16.375 35.625V8.54163C16.375 7.82333 16.6603 7.13446 17.1683 6.62655C17.6762 6.11864 18.365 5.83329 19.0833 5.83329H27.2083V13.9583C27.2083 16.1132 28.0644 18.1798 29.5881 19.7035C31.1118 21.2273 33.1784 22.0833 35.3333 22.0833H43.4583V35.625Z" fill="#A1A1A1"/>
</svg>
