<svg width="381" height="381" viewBox="0 0 381 381" fill="none" xmlns="http://www.w3.org/2000/svg">
<g opacity="0.75" clip-path="url(#clip0_49_1025)">
<rect width="381" height="381" fill="#877DD3"/>
<path d="M222.636 113.869C215.182 120.45 209.871 128.868 208.724 138.985C208.183 143.782 208.005 148.381 209.721 152.896C211.12 156.574 214.255 160.209 212.907 164.532C211.85 167.918 208.125 170.493 206.69 173.98C205.065 177.932 204.944 182.176 205.778 186.303C207.648 195.568 216.012 202.004 216.924 211.439C217.907 221.626 213.209 232.25 209.219 241.531C205.934 249.169 201.071 256.15 202.268 264.672C203.617 274.28 212.374 278.883 210.735 289.362C209.24 298.927 211.398 307.247 220.461 312.606C229 317.655 238.188 316.604 246.249 311.111C255.091 305.086 256.47 298.073 258.475 288.367C261.187 275.257 261.936 262.357 261.902 249.01C261.858 232.955 259.354 216.538 267.502 202.273C275.438 188.383 261.69 179.737 257.734 167.573C254.604 157.941 260.458 148.171 257.857 138.482C255.425 129.41 247.786 121.124 239.252 117.051C237.799 116.358 223.459 113.142 222.636 113.869Z" fill="#D04446"/>
<path d="M205.334 396.537C203.743 405.657 197.626 408.92 190.402 409.333C183.181 409.748 177.97 405.567 177.095 398.431C177.159 394.929 166.1 307.71 166.1 307.71V272.155H205.812C205.812 272.155 208.294 293.956 208.294 315.749C208.294 349.439 205.901 391.345 205.334 396.537Z" fill="#CB7A65"/>
<path d="M133.828 396.537C135.419 405.657 141.536 408.92 148.759 409.333C155.982 409.748 161.191 405.567 162.067 398.431C162.005 394.929 173.062 307.71 173.062 307.71V272.155H133.35C133.35 272.155 130.867 293.956 130.867 315.749C130.867 349.439 133.26 391.345 133.828 396.537Z" fill="#CB7A65"/>
<path d="M160.681 138.587H178.034C177.394 140.076 177.067 155.088 182.274 161.912C182.274 161.912 183.638 180.869 169.029 180.869C154.422 180.869 155.785 161.912 155.785 161.912C161.475 155.003 160.89 140.429 160.681 138.587Z" fill="#FBC0AF"/>
<path d="M137.802 168.014C140.797 166.976 149.38 164.988 155.785 161.912C155.785 161.912 159.585 168.809 168.292 169.392C177 168.809 182.274 161.912 182.274 161.912C188.678 164.988 197.766 166.976 200.761 168.014C203.968 169.125 212.834 303.092 211.256 304.323C203.784 310.147 183.089 312.602 168.222 313.11C153.354 312.602 134.251 310.148 126.78 304.323C125.203 303.092 134.595 169.125 137.802 168.014Z" fill="#47509B"/>
<path d="M266.337 260.074C261.888 257.903 219.738 233.551 218.925 233.168C207.47 227.771 204.301 244.333 213.904 249.325C218.268 251.594 263.256 272.116 264.918 272.718C266.496 269.817 266.112 263.311 266.337 260.074Z" fill="#47509B"/>
<path d="M225.386 238.272C225.257 237.68 219.633 203.623 217.992 192.62C216.351 181.617 210.528 169.034 200.258 168.014C200.258 168.014 195.131 171.502 196.343 182.451C197.398 192.02 206.237 235.783 209.742 245.989C210.487 248.159 227.656 248.619 225.386 238.272Z" fill="#47509B"/>
<path d="M123.314 240.229C123.362 239.626 124.331 205.142 124.469 194.025C124.606 182.907 127.759 170.346 137.801 168.014C137.801 168.014 144.274 170.15 144.554 181.159C144.801 190.78 141.959 235.299 139.865 245.865C139.419 248.113 122.462 250.777 123.314 240.229Z" fill="#4C56A6"/>
<path d="M178.034 148.908C177.492 148.917 166.145 148.325 160.104 150.781C161.051 145.083 160.803 139.663 160.681 138.587H178.034C177.829 139.066 178.001 146.343 178.034 148.908Z" fill="#DAD6D2"/>
<path d="M190.715 100.631C190.715 100.631 191.937 119.211 189.09 133.092C186.26 146.9 182.112 147.988 173.213 146.492C155.932 143.593 156.835 128.287 156.835 128.287C156.835 128.287 154.198 132.011 151.047 128.183C149.714 126.565 147.901 121.161 150.532 110.706C155.121 92.4548 190.715 100.631 190.715 100.631Z" fill="#FBC0AF"/>
<path d="M156.157 126.409C156.157 126.409 155.833 126.119 154.948 125.033C154.066 123.95 152.72 124.945 153.43 126.141C154.033 127.157 156.157 126.409 156.157 126.409Z" fill="#CAC4C2"/>
<path d="M185.156 122.16C185.727 123.42 187.783 122.346 187.051 121.126C186.34 119.943 184.609 120.955 185.156 122.16Z" fill="#00001E"/>
<path d="M184.796 117.599C186.477 117.077 187.638 117.137 189.234 117.812C190.229 118.233 191.928 117.516 191.372 116.209C190.086 113.186 185.266 113.568 183.463 115.907C182.828 116.73 183.873 117.886 184.796 117.599Z" fill="#40477A"/>
<path d="M172.534 121.166C171.987 119.903 169.903 120.974 170.64 122.199C171.355 123.391 173.056 122.372 172.534 121.166Z" fill="#00001E"/>
<path d="M175.501 115.267C174.354 114.045 172.358 113.836 170.753 113.83C169.213 113.824 166.261 114.72 166.362 116.612C166.401 117.358 166.944 117.876 167.704 117.921C168.705 117.981 169.849 117.186 170.877 117.033C172.096 116.852 173.185 116.766 174.374 117.156C175.533 117.537 176.239 116.054 175.501 115.267Z" fill="#40477A"/>
<path d="M165.74 124.077C168.829 122.451 176.145 127.955 171.303 130.571C166.458 133.187 162.65 125.705 165.74 124.077Z" fill="#F9B49D"/>
<path d="M190.383 124.049C190.126 126.431 189.821 128.833 189.383 131.134C188.838 131.088 187.976 130.904 187.389 130.587C183.744 128.62 187.241 125.018 190.383 124.049Z" fill="#F9B49D"/>
<path d="M183.79 117.351C182.873 118.259 181.949 119.569 181.844 120.874C181.838 120.952 181.946 120.951 181.972 120.891C182.248 120.244 182.484 119.6 182.828 118.981C183.135 118.429 183.506 117.918 183.803 117.361C183.807 117.353 183.797 117.344 183.79 117.351Z" fill="#BDB7B2"/>
<path d="M181.324 122.714C180.978 124.693 181.288 126.52 181.797 128.442C182.013 129.253 182.743 130.867 181.892 131.491C180.951 132.182 179.424 132.015 178.419 131.61C178.368 131.589 178.332 131.674 178.382 131.697C179.28 132.115 180.188 132.204 181.166 132.049C181.532 131.991 182.647 131.641 182.625 131.118C182.58 130.058 182.242 129.04 181.96 128.023C181.475 126.284 181.198 124.525 181.404 122.724C181.409 122.68 181.332 122.67 181.324 122.714Z" fill="#BDB7B2"/>
<path d="M182.358 135.611C177.779 136.573 173.198 134.368 173.198 134.368C174.112 137.023 180.334 139.07 181.164 136.96C181.447 136.24 182.358 135.611 182.358 135.611Z" fill="#F0EFEE"/>
<path d="M178.381 140.732C177.777 140.198 176.774 139.727 176.018 140.272C175.897 140.359 175.937 140.537 176.094 140.547C176.834 140.596 177.482 140.669 178.147 141.028C178.335 141.13 178.547 140.88 178.381 140.732Z" fill="#DAD6D2"/>
<path d="M153.996 95.2173L160.732 104.121C164.097 114.676 158.976 115.653 157.209 121.738C157.082 122.174 156.981 122.593 156.896 122.997C156.21 122.294 155.401 121.729 154.56 121.724C152.344 121.715 150.539 123.462 150.529 125.623C150.52 127.786 152.308 129.546 154.525 129.554C155.343 129.559 156.139 129.029 156.817 128.356C157.216 130.647 160.617 139.684 160.617 139.684C156.158 137.061 149.054 135.348 148.334 127.596C147.891 122.822 144.267 122.354 143.853 108.709C143.401 93.6817 153.996 95.2173 153.996 95.2173Z" fill="#454C81"/>
<path d="M192.807 103.336C192.985 108.225 190.874 113.717 190.874 113.717C190.655 110.863 188.958 106.968 187.65 105.426C187.65 105.426 191.334 104.774 192.807 103.336Z" fill="#454C81"/>
<path d="M160.732 104.121C160.732 104.121 165.946 108.603 177.661 108.631C185.902 108.654 192.749 107.039 195.471 99.7915C200.422 86.6091 188.419 78.3905 179.408 83.568C176.516 85.231 176.86 88.0052 177.136 89.82C177.136 89.82 172.724 90.9409 167.006 88.0062C158.721 83.7545 153.452 93.5515 153.996 95.2176L160.732 104.121Z" fill="#4F5892"/>
<path d="M247.78 149.188C245.107 154.954 243.731 180.642 244.114 186.206C240.826 191.691 230.896 190.499 230.125 189.345C229.494 188.403 235.397 167.986 231.392 162.436C227.965 157.691 226.229 155.771 228.754 153.328C233.295 148.937 239.47 147.624 245.325 146.195L247.78 149.188Z" fill="#F9AF94"/>
<path d="M208.471 231.003C201.503 263.615 196.652 353.195 191.675 393.478C191.675 393.478 191.836 405.089 233.083 405.089C274.329 405.089 280.61 393.478 280.61 393.478C279.178 352.093 275.303 292.204 265.298 263.286C258.454 243.5 268.775 186.831 267.694 183.685C266.736 180.9 262.459 180.438 255.117 179.666C255.117 179.666 223.519 181.418 219.673 182.106C217.731 182.454 215.921 183.621 215.921 183.621C213.904 192.3 208.471 198.216 202.715 211.756C198.466 221.749 208.471 231.003 208.471 231.003Z" fill="#95A8D6"/>
<path d="M244.652 169.725C245.325 175.187 253.282 179.669 255.117 179.666C255.117 179.666 239.681 192.914 226.947 194.176C215.99 195.257 219.674 182.106 219.674 182.106C225.277 180.839 232.141 175.381 232.803 170.693C232.803 170.693 236.329 170.645 239.54 170.126L244.652 169.725Z" fill="#F9AF94"/>
<path d="M232.291 164.439C234.25 164.835 236.542 164.417 238.677 164.902C243.387 165.967 244.652 169.724 244.652 169.724C245.264 161.277 246.334 152.31 247.78 149.188L245.325 146.195C239.469 147.624 233.295 148.937 228.754 153.328C226.229 155.771 227.966 157.691 231.392 162.436C231.78 162.973 232.073 163.653 232.291 164.439Z" fill="#DAD6D2"/>
<path d="M261.63 180.827C273.811 179.544 273.62 201.798 275.73 209.181C277.743 216.219 281.16 231.933 283.56 238.815C285.041 243.069 286.86 245.596 282.963 248.683C279.067 251.769 275.886 249.549 274.682 246.85C270.476 237.411 259.644 202.559 257.883 193.823C255.969 184.334 261.63 180.827 261.63 180.827Z" fill="#F9AF94"/>
<path d="M209.973 229.262C209.973 229.262 186.852 251.665 189.575 278.257C191.778 299.788 204.162 307.478 204.462 321.076" fill="#95A8D6"/>
<path d="M233.083 309.498C205.03 312.036 199.323 306.179 199.295 306.474C197.96 320.395 196.036 348.489 196.036 348.489C200.824 325.807 205.787 317.276 233.083 309.498Z" fill="#DAD6D2"/>
<path d="M208.47 231.003C216.06 234.499 226.47 229.262 229.762 229.262C233.053 229.262 242.557 239.406 254.012 229.701C241.734 242.342 231.782 229.953 228.265 231.341C216.18 236.107 208.47 231.003 208.47 231.003Z" fill="#DAD6D2"/>
<path d="M220.946 130.672C218.829 135.537 219.921 137.793 220.216 142.375C220.495 146.741 220.346 147.613 221.156 151.162C222.186 155.682 226.085 159.436 230.085 162.258C236.641 166.458 242.691 161.512 246.424 156.13C253.741 145.58 253.165 134.736 250.55 128.982C246.872 120.664 238.719 120.288 230.75 122.089C230.75 122.089 224.266 123.037 220.946 130.672Z" fill="#F9AF94"/>
<path d="M249.258 144.131C250.434 141.145 255.659 138.949 255.659 143.872C255.659 147.929 249.88 155.597 248.739 147.801L249.258 144.131Z" fill="#F9AF94"/>
<path d="M226.686 144.046C226.686 142.854 224.789 142.854 224.789 144.046" stroke="#540806" stroke-width="1.6759" stroke-miterlimit="10" stroke-linecap="round" stroke-linejoin="round"/>
<path d="M242.471 144.137C242.471 142.945 240.574 142.945 240.574 144.137" stroke="#540806" stroke-width="1.6759" stroke-miterlimit="10" stroke-linecap="round" stroke-linejoin="round"/>
<path d="M238.438 140.576C239.35 140.606 240.047 139.917 241.002 139.956C241.959 139.996 242.933 140.736 243.86 140.362C244.185 140.231 244.36 139.918 244.181 139.592C243.674 138.667 242.011 138.332 241.001 138.353C239.919 138.376 238.383 139.018 238.052 140.082C237.975 140.332 238.185 140.567 238.438 140.576Z" fill="#982E2F"/>
<path d="M228.725 140.082C228.411 139.068 227.029 138.473 226.006 138.375C224.949 138.273 223.131 138.615 222.595 139.592C222.417 139.918 222.592 140.231 222.916 140.362C223.748 140.698 224.687 140.124 225.532 139.987C226.604 139.812 227.336 140.61 228.339 140.576C228.593 140.567 228.803 140.332 228.725 140.082Z" fill="#982E2F"/>
<path d="M246.79 146.464C243.895 144.938 237.033 150.101 241.577 152.555C246.119 155.009 249.689 147.99 246.79 146.464Z" fill="#F79C80"/>
<path d="M220.429 146.372C220.524 147.929 220.663 149.1 221.153 151.248C221.246 151.659 221.372 152.062 221.51 152.46C222.593 153.146 223.959 153.35 225.434 152.555C229.871 150.159 223.431 145.182 220.429 146.372Z" fill="#F79C80"/>
<path d="M228.796 140.539C229.074 141.061 229.418 141.544 229.71 142.06C230.038 142.637 230.255 143.243 230.514 143.849C230.538 143.906 230.639 143.906 230.633 143.833C230.536 142.61 229.667 141.382 228.808 140.53C228.802 140.524 228.792 140.532 228.796 140.539Z" fill="#BDB7B2"/>
<path d="M231.315 146.491C231.454 148.046 230.867 149.336 230.683 150.832C230.561 151.816 232.322 151.862 232.936 151.632C232.99 151.612 232.97 151.53 232.912 151.546C232.444 151.674 230.94 151.64 230.963 150.832C230.977 150.349 231.157 149.858 231.282 149.394C231.547 148.41 231.586 147.482 231.39 146.481C231.382 146.44 231.311 146.449 231.315 146.491Z" fill="#BDB7B2"/>
<path d="M234.13 158.898C234.712 158.468 235.317 158.322 236.012 158.174C236.133 158.148 236.15 157.978 236.046 157.921C235.281 157.503 234.399 158.047 233.911 158.621C233.789 158.763 233.955 159.027 234.13 158.898Z" fill="#DAD6D2"/>
<path d="M239.008 153.362C239.008 153.362 237.546 153.777 235.109 153.777C234.708 153.777 234.039 153.818 233.543 154.509C233.115 154.239 232.776 153.996 232.181 154.242C231.333 154.596 230.318 154.555 230.318 154.555C230.318 154.555 230.647 155.165 231.141 155.691C231.784 156.383 232.68 157.075 234.039 156.961C236.087 156.791 237.306 155.782 237.967 154.925C238.541 154.18 239.008 153.362 239.008 153.362Z" fill="#F9BBB5"/>
<path d="M238.994 153.339C236.592 154.793 232.945 156.842 230.338 154.537C230.312 154.514 230.277 154.548 230.299 154.574C232.345 156.935 237.259 155.386 239.027 153.381C239.046 153.359 239.022 153.323 238.994 153.339Z" fill="#F9BBB5"/>
<path d="M263.039 257.954C272.953 260.958 274.296 275.57 267.028 279.878C260.193 283.93 255.473 279.49 258.344 275.632C263.441 268.783 264.783 263.913 264.783 263.913L263.039 257.954Z" fill="#FBC0AF"/>
<path d="M277.247 219.928C278.971 216.063 280.294 211.626 280.423 207.71C280.896 193.42 269.235 183.244 267.671 169.477C266.834 162.106 270.741 156.895 271.087 149.788C271.417 142.979 270.259 136.605 268.067 130.509C266.254 125.476 262.812 110.744 245.2 107.413C233.658 105.232 220.508 108.822 217.35 125.794C216.726 128.54 215.373 131.712 216.161 134.361C216.88 136.778 217.586 138.784 219.701 140.406C219.489 138.716 219.249 136.864 220.39 135.592C222.31 133.45 224.36 133.358 225.881 132.38C227.388 131.41 229.643 128.082 230.682 125.613C231.869 137.323 235.557 132.801 241.224 138.468C253.911 151.162 238.047 171.867 239.384 178.289C240.803 185.104 246.891 190.274 246.597 197.545C246.456 200.972 247.069 204.305 245.742 207.62C244.27 211.303 241.566 214.364 239.41 217.664C235.548 223.572 231.05 231.136 234.87 238.087C237.421 242.731 243.267 243.859 245.189 248.836C247.226 254.109 244.491 258.7 244.018 263.901C243.495 269.656 247.772 274.362 253.871 274.082C260.119 273.793 261.095 266.957 261.133 262.134C261.153 259.532 260.014 256.623 260.375 254.097C260.837 250.852 264.483 248.485 266.245 245.872C268.604 242.376 268.36 238.341 269.268 234.497C270.245 230.358 273.525 226.97 275.563 223.3C276.148 222.252 276.716 221.117 277.247 219.928Z" fill="#D04446"/>
<path d="M184.005 259.184C185.545 259.813 186.608 260.213 186.972 260.283C189.216 260.713 191.605 261.485 194.522 261.179C197.888 260.823 200.7 261.015 203.84 262.216C205.003 262.658 207.084 263.789 206.944 264.587C206.702 265.995 205.528 265.662 203.574 264.946C203.038 264.748 201.308 264.668 200.245 264.207C202.972 266.346 209.37 267.037 212.47 269.854C214.352 271.562 215.047 273.131 212.968 274.982C210.425 277.249 208.554 275.112 205.696 275.277C204.547 275.343 202.849 276.545 199.35 275.188C197.394 274.429 195.148 273.283 193.463 272.088C191.318 270.568 188.505 268.42 186.689 267.505C186.1 267.211 186.443 267.302 181.038 265.843L184.005 259.184Z" fill="#FBC0AF"/>
<path d="M187.536 257.545C182.934 255.704 134.32 233.45 133.48 233.128C121.646 228.576 119.746 245.323 129.705 249.607C134.229 251.553 182.36 269.239 184.065 269.718C185.419 266.71 187.558 260.79 187.536 257.545Z" fill="#4C56A6"/>
<path d="M284.818 242.009C280.347 235.075 274.361 241.63 270.034 244.804C264.161 249.114 239.291 264.79 237.244 265.486C235.198 266.183 233.057 267.221 230.278 267.311C227.067 267.417 224.452 267.962 221.666 269.502C220.635 270.07 218.835 271.402 219.075 272.136C219.497 273.424 220.552 272.96 222.292 272.031C222.766 271.776 224.381 271.473 225.315 270.904C223.049 273.268 217.132 274.75 214.608 277.8C213.078 279.651 212.637 281.214 214.844 282.682C217.543 284.478 219.007 282.229 221.714 282.012C222.804 281.925 224.563 282.832 227.663 281.1C229.396 280.132 231.35 278.762 232.765 277.422C234.572 275.713 236.92 273.33 238.501 272.234C240.082 271.137 271.349 258.678 276.819 254.691C283.302 249.971 286.615 244.794 284.818 242.009Z" fill="#F9AF94"/>
<path d="M148.029 51.224C146.472 51.224 145.064 50.9573 143.805 50.424C142.568 49.8907 141.587 49.1227 140.861 48.12C140.136 47.1173 139.763 45.9333 139.741 44.568H144.541C144.605 45.4853 144.925 46.2107 145.501 46.744C146.099 47.2773 146.909 47.544 147.933 47.544C148.979 47.544 149.8 47.2987 150.397 46.808C150.995 46.296 151.293 45.6347 151.293 44.824C151.293 44.1627 151.091 43.6187 150.685 43.192C150.28 42.7653 149.768 42.4347 149.149 42.2C148.552 41.944 147.72 41.6667 146.653 41.368C145.203 40.9413 144.019 40.5253 143.101 40.12C142.205 39.6933 141.427 39.064 140.765 38.232C140.125 37.3787 139.805 36.248 139.805 34.84C139.805 33.5173 140.136 32.3653 140.797 31.384C141.459 30.4027 142.387 29.656 143.581 29.144C144.776 28.6107 146.141 28.344 147.677 28.344C149.981 28.344 151.848 28.9093 153.277 30.04C154.728 31.1493 155.528 32.7067 155.677 34.712H150.749C150.707 33.944 150.376 33.3147 149.757 32.824C149.16 32.312 148.36 32.056 147.357 32.056C146.483 32.056 145.779 32.28 145.245 32.728C144.733 33.176 144.477 33.8267 144.477 34.68C144.477 35.2773 144.669 35.7787 145.053 36.184C145.459 36.568 145.949 36.888 146.525 37.144C147.123 37.3787 147.955 37.656 149.021 37.976C150.472 38.4027 151.656 38.8293 152.573 39.256C153.491 39.6827 154.28 40.3227 154.941 41.176C155.603 42.0293 155.933 43.1493 155.933 44.536C155.933 45.7307 155.624 46.84 155.005 47.864C154.387 48.888 153.48 49.7093 152.285 50.328C151.091 50.9253 149.672 51.224 148.029 51.224ZM176.553 33.272V51H172.041V48.76C171.465 49.528 170.708 50.136 169.769 50.584C168.852 51.0107 167.849 51.224 166.761 51.224C165.375 51.224 164.148 50.936 163.081 50.36C162.015 49.7627 161.172 48.8987 160.553 47.768C159.956 46.616 159.657 45.2507 159.657 43.672V33.272H164.137V43.032C164.137 44.44 164.489 45.528 165.193 46.296C165.897 47.0427 166.857 47.416 168.073 47.416C169.311 47.416 170.281 47.0427 170.985 46.296C171.689 45.528 172.041 44.44 172.041 43.032V33.272H176.553ZM179.822 42.072C179.822 40.28 180.174 38.6907 180.878 37.304C181.603 35.9173 182.574 34.8507 183.79 34.104C185.027 33.3573 186.403 32.984 187.918 32.984C189.24 32.984 190.392 33.2507 191.374 33.784C192.376 34.3173 193.176 34.9893 193.774 35.8V33.272H198.286V51H193.774V48.408C193.198 49.24 192.398 49.9333 191.374 50.488C190.371 51.0213 189.208 51.288 187.886 51.288C186.392 51.288 185.027 50.904 183.79 50.136C182.574 49.368 181.603 48.2907 180.878 46.904C180.174 45.496 179.822 43.8853 179.822 42.072ZM193.774 42.136C193.774 41.048 193.56 40.12 193.134 39.352C192.707 38.5627 192.131 37.9653 191.406 37.56C190.68 37.1333 189.902 36.92 189.07 36.92C188.238 36.92 187.47 37.1227 186.766 37.528C186.062 37.9333 185.486 38.5307 185.038 39.32C184.611 40.088 184.398 41.0053 184.398 42.072C184.398 43.1387 184.611 44.0773 185.038 44.888C185.486 45.6773 186.062 46.2853 186.766 46.712C187.491 47.1387 188.259 47.352 189.07 47.352C189.902 47.352 190.68 47.1493 191.406 46.744C192.131 46.3173 192.707 45.72 193.134 44.952C193.56 44.1627 193.774 43.224 193.774 42.136ZM224.677 33.016C226.853 33.016 228.602 33.688 229.925 35.032C231.269 36.3547 231.941 38.2107 231.941 40.6V51H227.461V41.208C227.461 39.8213 227.109 38.7653 226.405 38.04C225.701 37.2933 224.741 36.92 223.525 36.92C222.309 36.92 221.338 37.2933 220.613 38.04C219.909 38.7653 219.557 39.8213 219.557 41.208V51H215.077V41.208C215.077 39.8213 214.725 38.7653 214.021 38.04C213.317 37.2933 212.357 36.92 211.141 36.92C209.904 36.92 208.922 37.2933 208.197 38.04C207.493 38.7653 207.141 39.8213 207.141 41.208V51H202.661V33.272H207.141V35.416C207.717 34.6693 208.453 34.0827 209.349 33.656C210.266 33.2293 211.269 33.016 212.357 33.016C213.744 33.016 214.981 33.3147 216.069 33.912C217.157 34.488 218 35.32 218.597 36.408C219.173 35.384 220.005 34.5627 221.093 33.944C222.202 33.3253 223.397 33.016 224.677 33.016ZM238.464 31.16C237.675 31.16 237.014 30.9147 236.48 30.424C235.968 29.912 235.712 29.2827 235.712 28.536C235.712 27.7893 235.968 27.1707 236.48 26.68C237.014 26.168 237.675 25.912 238.464 25.912C239.254 25.912 239.904 26.168 240.416 26.68C240.95 27.1707 241.216 27.7893 241.216 28.536C241.216 29.2827 240.95 29.912 240.416 30.424C239.904 30.9147 239.254 31.16 238.464 31.16ZM240.672 33.272V51H236.192V33.272H240.672Z" fill="white"/>
</g>
<defs>
<clipPath id="clip0_49_1025">
<rect width="381" height="381" fill="white"/>
</clipPath>
</defs>
</svg>
